<?xml version="1.0" encoding="UTF-8"?><svg id="Layer_2" xmlns="http://www.w3.org/2000/svg" viewBox="0 0 121.59 108.15"><g id="Layer_2-2"><path d="m118.21,97.76c2.07,2.17,2.94,4.89,3.34,7.76.2,1.44-.52,2.32-1.94,2.54-.85.13-1.79.14-2.61-.08-5.57-1.53-11.28-2.28-16.96-3.18-4.6-.73-8.47-2.74-11.71-6.04-2.59-2.64-3.9-5.86-4.01-9.49-.07-2.22.13-4.48.51-6.67.62-3.54,1.56-7,3.32-10.21,1.34-2.45,2.49-5.01,3.63-7.56.45-1.01.75-2.12.95-3.21.52-2.8-1.07-4.53-3.92-4.24-2.12.22-4.01,1.05-5.56,2.56-1.69,1.64-2.9,3.61-3.97,5.68-1.17,2.28-2.24,4.6-3.42,6.87-.59,1.13-1.2,2.28-1.99,3.27-.68.86-1.54,1.65-2.48,2.21-2.82,1.7-5.72.92-7.36-1.95-.59-1.03-.96-2.19-1.49-3.27-.6-1.22-1.11-2.51-1.91-3.58-1.21-1.59-3.01-2.71-5.42-.94-2.51,1.84-5.01,3.71-7.45,5.65-3.57,2.83-7.04,5.79-10.65,8.57-1.96,1.51-4.04,2.89-6.2,4.08-5.81,3.22-11.57,6.51-16.76,10.69-1.51,1.22-3.33,1.55-5.16,1.73-2.7.28-5.42.39-8.13.56-.2.01-.41-.12-.88-.27.65-.67,1.13-1.29,1.73-1.77,5.48-4.41,10.87-8.96,16.99-12.48,2.7-1.55,5.52-2.9,8.26-4.4,3.02-1.65,6.08-3.23,8.98-5.06,5.56-3.53,9.93-8.27,13.48-13.79,1.43-2.22,2.87-4.44,4.13-6.75,4.69-8.64,11.36-15.37,19.54-20.73,4.88-3.2,9.68-6.53,14.43-9.92,3.98-2.84,7.65-6.05,10.7-9.91.2-.25.43-.47.63-.73.94-1.22.75-1.68-.82-2.09-1.34-.36-2.67-.39-4.04-.14-3.54.64-6.7,2.18-9.61,4.18-3.29,2.26-6.43,4.75-9.63,7.14-2.62,1.96-5.15,4.07-7.88,5.87-2.12,1.4-4.43,2.56-6.75,3.6-3.79,1.7-7.68,3.18-11.49,4.84-3.31,1.44-6.4,3.26-9.24,5.51-2.72,2.16-4.71,4.76-5.64,8.12-.06.2-.15.39-.34.86-1.28-4.08-2.45-7.86-1.56-11.96.53-2.46,1.78-4.4,3.73-5.96,2.42-1.93,5.24-3.05,8.11-4.06,2.79-.99,5.6-1.91,8.42-2.8,5.99-1.9,11.59-4.62,16.83-8.04,4.55-2.98,8.99-6.12,13.47-9.19,3.89-2.66,7.7-5.46,12.01-7.45,2.04-.95,4.15-1.68,6.38-1.99.71-.1,1.44-.17,2.14-.07,2.58.35,3.95,1.85,4.17,4.47.17,2.02-.1,3.99-.61,5.94-1.12,4.25-3.14,8.01-6.13,11.26-3.21,3.5-6.88,6.44-10.79,9.11-5.62,3.83-11.25,7.63-16.81,11.54-1.82,1.28-3.54,2.74-5.13,4.31-2.91,2.87-3.86,6.33-2.72,10.34.83,2.91,2.13,5.51,4.43,7.54,2.59,2.3,5.51,2.21,7.82-.33.91-1,1.67-2.14,2.39-3.29,1.56-2.51,2.96-5.13,4.6-7.59,1.32-1.98,2.8-3.9,4.41-5.65,1.31-1.43,3.01-2.31,5.1-2.31,3.93,0,6.88,2.62,7.21,6.54.24,2.84-.16,5.61-1.12,8.26-1.53,4.21-3.2,8.36-4.82,12.53-.38.97-.74,1.94-1.15,2.9-1.75,4.04-1.16,7.98.54,11.85,1.86,4.25,4.96,7.41,8.83,9.86,3.14,1.99,6.53,3.38,10.17,4.1.55.11,1.11.21,1.66.2,1.72-.02,2.61-.75,3.05-2.46.12-.46.14-.95.21-1.42l-.04.03Z"/><path d="m118.25,97.72l-.14-.33s.07.1.09.15c.02.07.01.14.02.21l.04-.03Z"/></g></svg>