<?xml version="1.0" encoding="UTF-8"?><svg id="Layer_2" xmlns="http://www.w3.org/2000/svg" viewBox="0 0 219.77 180.11"><g id="Layer_2-2"><path d="m179.64,82.26c0,3.06-.61,5.62-1.37,8.15-1.86,6.15-4.77,11.85-7.62,17.58-2.1,4.22-4.31,8.4-6.15,12.74-2.79,6.57-1.49,12.68,2.8,18.23,1.83,2.37,4.23,4.12,6.81,5.61,4.48,2.59,9.33,4.21,14.37,5.2,3.84.75,7.72,1.33,11.61,1.74,2.88.31,5.71-.47,8.54-.96,1.96-.35,3.94-.75,5.92-.8,4.29-.12,6.57,3.9,4.38,7.62-.6,1.02-1.4,1.95-2.26,2.78-2.08,1.99-4.18,3.96-6.38,5.82-2.12,1.79-4.6,2.48-7.39,1.88-7.52-1.64-15.17-2.23-22.8-3.05-4.52-.49-9.1-.86-13.52-1.87-5.87-1.35-10.96-4.41-15.08-8.87-3.86-4.18-5.37-9.3-4.94-14.83.71-9.13,3.34-17.7,8.24-25.53,2.12-3.39,4.15-6.84,6.06-10.35.99-1.81,1.71-3.78,2.39-5.74.33-.95.42-2.04.4-3.06-.03-1.76-.98-2.95-2.72-3.09-1.73-.13-3.52-.06-5.23.24-3.23.58-5.94,2.27-8.34,4.49-2.19,2.02-4.02,4.35-5.57,6.88-1.84,3-3.53,6.09-5.36,9.09-1.54,2.52-3.08,5.06-4.84,7.43-1.13,1.52-2.57,2.84-4.04,4.07-2.23,1.87-4.96,2.58-7.81,2.62-3.01.04-5.48-1.18-7-3.85-.94-1.66-1.63-3.46-2.46-5.19-.76-1.58-1.46-3.2-2.33-4.72-.86-1.5-2.19-2.52-3.84-3.1-1.27-.44-2.51-.48-3.69.25-1.63,1.01-3.32,1.94-4.87,3.06-7.31,5.31-14.59,10.67-21.87,16.01-1.48,1.09-2.97,2.18-4.44,3.28-5.26,3.94-10.76,7.44-16.64,10.42-9.07,4.59-17.89,9.63-26.13,15.6-2.26,1.64-4.38,3.48-6.4,5.41-3.65,3.48-7.13,7.12-10.76,10.61-1.67,1.6-3.5,3.04-5.33,4.46-.81.63-1.77,1.08-2.72,1.49-.83.36-1.42-.21-1.21-1.12.15-.62.37-1.23.66-1.8.69-1.35,1.37-2.71,2.17-4,4.95-8.05,10.5-15.68,16.54-22.94,1.29-1.55,2.78-2.85,4.46-3.97,6.06-4.05,12.44-7.54,18.84-11.01,5.69-3.09,11.39-6.16,16.99-9.41,12.13-7.05,22.36-16.22,30.45-27.73,3.03-4.32,6.13-8.59,9.15-12.92,6.48-9.29,14.32-17.18,23.73-23.5,2.65-1.79,5.26-3.64,7.96-5.36,5.79-3.7,11.64-7.32,17.44-11.02,3.03-1.93,6.02-3.94,9.01-5.94.66-.44,1.33-.91,1.9-1.45,1.79-1.7,2.8-3.69,1.97-6.23-.8-2.48-3.04-4.24-5.7-4.47-1.83-.16-3.5.36-5.01,1.34-2.08,1.35-4.15,2.71-6.17,4.15-4.95,3.53-9.86,7.11-14.79,10.66-1.43,1.03-2.89,2.01-4.33,3.01-5.09,3.51-10.49,6.42-16.27,8.65-5.52,2.13-10.99,4.38-16.44,6.68-3.02,1.27-5.96,2.72-8.9,4.18-4.23,2.11-8.25,4.57-11.96,7.51-2.18,1.72-4.61,2.49-7.4,1.86-4.03-.91-5.98-4.22-4.72-8.16.89-2.8,2.5-5.17,4.61-7.2,1.86-1.79,3.98-3.22,6.22-4.46,3.58-1.98,7.37-3.49,11.22-4.83,4.08-1.42,8.16-2.81,12.28-4.1,11.82-3.7,22.94-8.93,33.44-15.44,7.68-4.76,15.21-9.76,22.83-14.6,4.72-3,9.45-6.01,14.26-8.87,4.89-2.91,10.05-5.27,15.6-6.68,2.02-.51,4.06-.83,6.16-.82,5.21.04,8.46,2.83,7.99,8.98-.41,5.26-2.29,10.11-4.79,14.72-2.58,4.76-6.1,8.79-10.01,12.49-3.79,3.58-7.9,6.76-12.2,9.68-3.37,2.29-6.81,4.49-10.24,6.69-8.82,5.65-17.67,11.26-26.46,16.94-2.21,1.43-4.38,2.97-6.38,4.67-1.76,1.49-3.4,3.16-4.85,4.95-2.84,3.5-3.64,7.54-2.72,11.96.89,4.26,2.62,8.04,5.8,11.08,1.23,1.17,2.63,2.09,4.27,2.58,3.22.96,6.22.59,8.73-1.75,1.51-1.41,2.93-2.97,4.15-4.63,2.65-3.61,5.15-7.33,7.72-11,2.62-3.74,5.33-7.4,8.63-10.58,1.91-1.84,3.99-3.46,6.42-4.57,2.87-1.31,5.84-1.61,8.89-.77,5.76,1.59,8.51,5.25,8.46,10.82Z"/></g></svg>