<svg width="500" height="327" viewBox="0 0 500 327" fill="none" xmlns="http://www.w3.org/2000/svg">
<path d="M499.276 241.885C494.68 243.212 491.066 242.51 487.44 241.259C479.843 238.641 472.91 234.734 466.156 230.457C457.614 225.031 449.544 218.979 442.599 211.573C440.364 209.185 438.347 206.568 436.444 203.912C434.146 200.707 433.495 197.158 434.555 193.225C435.206 190.761 435.487 188.169 435.64 185.615C435.934 180.329 433.878 175.873 429.83 172.617C427.124 170.434 424.059 168.583 420.906 167.114C417.101 165.34 413.028 164.101 409.057 162.684C407.078 161.969 405.06 161.318 403.043 160.692C393.786 157.858 386.215 152.623 380.265 144.949C377.251 141.055 374.059 137.275 370.727 133.662C360.895 123.039 351.638 121.685 337.568 127.278C336.483 127.712 335.474 128.338 334.504 128.989C330.801 131.479 329.69 134.275 330.699 138.68C330.954 139.816 331.439 140.889 331.861 141.987C336.1 152.98 334.172 162.709 325.783 171.009C323.114 173.639 320.191 176.001 317.394 178.516C313.909 181.657 310.231 184.607 307.014 188.016C299.596 195.868 296.493 205.036 299.404 215.812C300.26 218.979 300.706 222.247 301.524 225.426C302.66 229.831 302.634 234.236 301.932 238.68C301.792 239.612 301.6 240.531 301.46 241.45C300.872 245.319 302.29 248.333 305.354 250.656C307.205 252.048 309.07 253.427 310.921 254.806C310.653 258.241 309.121 260.922 307.231 263.258C304.894 266.17 302.2 268.8 299.557 271.456C298.408 272.605 297.067 273.626 295.689 274.507C281.771 283.394 269.373 294.106 257.678 305.687C254.192 309.134 250.349 312.314 246.352 315.148C242.931 317.561 239.1 319.413 235.359 321.341C232.678 322.707 229.665 323.218 227.187 325.273C225.911 326.333 223.702 326.525 221.889 326.601C219.31 326.716 217.458 324.737 217.496 322.132C217.522 320.753 217.726 319.298 218.224 318.021C219.744 314.101 221.199 310.117 223.114 306.376C228.477 295.919 235.257 286.318 241.986 276.716C244.144 273.639 246.327 270.587 248.574 267.574C257.486 255.649 262.453 242.127 264.675 227.533C265.454 222.375 264.917 217.242 263.564 212.199C262.389 207.819 259.848 204.627 255.533 203.095C252.443 201.997 249.289 201.09 246.135 200.222C243.658 199.533 241.13 198.996 238.615 198.422C232.295 196.966 227.545 193.544 224.698 187.607C223.791 185.705 222.795 183.815 221.57 182.104C220.088 180.049 218.326 178.197 217.062 176.716C211.189 175.005 207.18 177.125 203.618 180.534C199.021 184.952 196.953 190.659 195.663 196.698C194.271 203.21 194.476 209.773 195.727 216.259C196.889 222.337 199.34 227.891 203.758 232.372C204.473 237.122 205.124 241.757 205.865 246.379C206.797 252.163 205.099 257.015 200.885 261.024C200.374 261.509 199.876 262.007 199.34 262.467C190.709 269.885 182.486 270.575 173.944 261.803C171.825 259.62 169.808 257.321 167.803 255.023C157.933 243.659 155.405 230.572 159.121 216.221C161.061 208.739 163.5 201.397 165.581 193.953C167.152 188.31 168.633 182.64 169.922 176.933C170.484 174.443 170.689 171.826 170.689 169.259C170.689 160.82 168.173 157.806 159.657 155.61C154.588 156.21 150.987 159.147 148.37 163.207C146.097 166.744 144.092 170.485 142.318 174.303C139.841 179.614 137.683 185.066 135.397 190.467C131.49 199.737 125.604 207.526 117.841 213.884C111.853 218.787 105.801 223.626 99.8382 228.567C95.6885 232.015 91.6282 235.577 87.5552 239.127C76.8811 248.447 67.6497 258.943 60.0782 270.996C55.8392 277.738 51.0001 284.109 46.2248 290.493C43.1221 294.643 39.3428 298.179 35.0144 301.078C26.7789 306.593 17.8795 307.091 8.75031 304.116C2.69822 302.125 -0.123539 298.026 0.00414265 292C0.0807514 288.463 0.144592 284.939 1.56185 281.632C3.57922 276.895 5.26461 271.941 7.86931 267.549C13.1298 258.675 18.8371 250.069 24.5062 241.438C27.5705 236.79 32.0394 233.739 37.1722 231.747C41.1048 230.215 45.1395 228.989 49.1104 227.572C51.9832 226.55 54.8688 225.567 57.6395 224.316C61.5465 222.554 64.7258 219.872 67.3816 216.438C71.8376 210.705 76.4725 205.1 81.0818 199.494C84.5164 195.332 87.9893 191.195 91.5261 187.122C99.1487 178.338 100.949 168.046 99.7232 156.849C98.7529 148.001 97.9995 139.127 97.2845 130.253C97.0802 127.699 97.2973 125.095 97.3867 122.515C97.4633 120.332 98.1783 118.391 99.9786 116.846C102.966 115.352 105.954 116.055 108.61 117.663C113.206 120.46 117.688 123.46 122.08 126.563C124.94 128.58 127.545 130.955 130.111 133.049C131.567 133.049 132.805 133.304 133.878 133.011C141.169 130.955 148.332 132.411 155.469 133.739C161.917 134.939 168.326 136.369 174.71 137.888C180.507 139.267 186.368 139.267 192.216 138.833C199.902 138.258 206.184 134.709 210.474 128.312C213.066 124.443 215.134 120.192 217.113 115.953C218.799 112.352 219.935 108.496 221.455 104.819C222.527 102.227 223.651 99.6093 225.119 97.2472C227.43 93.5189 230.367 92.8678 234.108 95C235.525 95.8044 236.84 96.8259 238.066 97.8984C239.828 99.4433 241.705 100.937 243.135 102.763C247.54 108.432 253.413 108.764 259.682 107.526C266.105 106.249 271.57 103.069 275.809 98.1282C278.707 94.7574 281.273 91.093 283.776 87.4158C290.505 77.5205 297.029 67.4975 303.809 57.6405C307.282 52.6098 310.487 47.4643 313.257 41.9995C314.943 38.667 316.807 35.3473 319.092 32.4106C323.957 26.1415 330.035 24.6987 337.185 28.1078C340.326 29.6017 343.263 31.6573 346.02 33.8024C351.243 37.8499 355.52 42.855 359.606 48.0261C369.603 60.6538 377.647 74.2901 381.886 89.9822C382.984 94.0424 384.376 98.0516 385.806 102.01C390.875 116.029 400.489 125.797 414.087 131.683C417.956 133.355 421.94 134.811 425.962 136.05C437.427 139.586 447.221 145.817 455.66 154.257C459.478 158.075 463.219 161.969 466.845 165.953C472.591 172.286 476.587 179.717 479.92 187.518C481.758 191.834 483.431 196.213 485.014 200.618C488.679 210.769 492.471 220.843 497.668 230.355C498.868 232.551 499.455 235.169 499.94 237.658C500.183 238.91 499.544 240.314 499.264 241.885H499.276ZM249.608 169.196C250.668 169.515 251.753 169.898 252.877 170.166C259.567 171.8 263.781 176.193 266.373 182.36C267.279 184.517 268.007 186.752 269.054 188.833C269.999 190.697 271.059 192.561 272.438 194.119C274.851 196.851 278.426 197.209 281.248 194.872C282.997 193.417 284.516 191.514 285.666 189.535C286.942 187.339 287.887 184.875 288.641 182.436C290.211 177.367 293.097 173.218 296.889 169.604C299.94 166.706 303.03 163.833 305.929 160.781C307.844 158.751 309.67 156.568 311.138 154.206C313.947 149.686 313.564 146.826 310.002 142.804C307.18 139.612 303.694 137.263 300.03 135.143C290.058 129.372 279.345 125.337 268.492 121.647C266.552 120.983 264.343 120.715 262.3 120.843C256.644 121.213 252.66 124.673 251 130.764C248.6 139.586 247.144 148.601 246.863 157.73C246.748 161.624 246.838 165.697 249.596 169.208L249.608 169.196ZM335.844 44.6681C334.976 45.3192 334.491 45.5107 334.261 45.8683C329.971 52.5715 325.668 59.262 321.455 66.0164C318.735 70.3831 316.015 74.7625 313.538 79.2825C312.096 81.9382 310.857 84.7855 310.04 87.6839C308.482 93.1614 311.049 96.3918 316.654 96.4939C322.323 96.596 326.485 93.8892 329.639 89.4203C332.665 85.1303 334.197 80.189 335.27 75.1456C337.083 66.6548 337.402 57.9725 338.181 49.354C338.283 48.2176 338.053 47.0557 337.989 45.9449C337.236 45.498 336.649 45.1532 335.831 44.6681H335.844Z" fill="#565656"/>
<path d="M261.215 62.62C258.01 60.5516 256.695 58.0107 255.494 55.5975C250.706 45.9704 246.569 36.0878 244.156 25.5286C243.275 21.6854 242.164 17.8549 240.824 14.1522C238.832 8.66188 238.96 5.94227 242.139 0.324294C243.709 -0.518402 244.999 0.439208 245.842 1.39682C247.208 2.92899 248.51 4.67823 249.264 6.55514C252.57 14.7778 255.814 23.0388 258.789 31.3892C260.678 36.6879 261.368 42.2931 261.546 47.9111C261.7 52.5332 262.632 57.1935 261.189 62.62H261.215Z" fill="#565656"/>
</svg>
